Genre: Horror | Mystery | Thriller 
Language:English  http://www.imdb.com/title/tt1536044/
Source:DVD
Subtitles:Romana


Format : MPEG-4
Format profile : Base Media
Codec ID : isom
File size : 1.02 GiB
Duration : 1h 38mn
Overall bit rate : 1 493 Kbps
Movie name : Paranormal.Activity.2.2010.UNRATED.DvDRip.x264.Feel-Free


Video
Format settings, CABAC : Yes
Format settings, ReFrames : 4 frames
Codec ID : avc1
Codec ID/Info : Advanced Video Coding
Duration : 1h 38mn
Bit rate mode : Variable
Bit rate : 1 200 Kbps
Width : 720 pixels
Height : 384 pixels
Display aspect ratio : 1.875
Frame rate mode : Constant
Frame rate : 23.976 fps
Color space : YUV
Chroma subsampling : 4:2:0
Bit depth : 8 bits
Scan type : Progressive
Bits/(Pixel*Frame) : 0.181
Stream size : 829 MiB (79%)
Writing library : x264 

Audio
ID : 2
Format : AAC
Format/Info : Advanced Audio Codec
Format version : Version 4
Format profile : LC
Codec ID : 40
Duration : 1h 38mn
Bit rate mode : Variable
Bit rate : 306 Kbps
Channel(s) : 6 channels
Channel positions : Front: L C R, Side: L R, LFE
Sampling rate : 48.0 KHz
Stream size : 214 MiB (20%)



Plot:
After experiencing what they think are a series of "break-ins", a family sets up security cameras around their home, only to realize that the events unfolding before them are more sinister than they seem

